<?xml version="1.0" encoding="utf-8"?>
<!-- Generator: Adobe Illustrator 24.0.1, SVG Export Plug-In . SVG Version: 6.00 Build 0)  -->
<svg version="1.1" id="Icon_x5F_contour" xmlns="http://www.w3.org/2000/svg" xmlns:xlink="http://www.w3.org/1999/xlink" x="0px"
	 y="0px" viewBox="0 0 192 192" style="enable-background:new 0 0 192 192;" xml:space="preserve">
<path d="M63,160c-8.28027,0-16.06543-3.22461-21.92041-9.08008C35.22461,145.06543,32,137.28027,32,129
	s3.22461-16.06543,9.08008-21.92041L108.875,38.89111c9.17139-9.17041,24.07959-9.16992,33.24219-0.0083
	c9.1626,9.1626,9.1626,24.07178,0,33.23438L83.32324,131.3042c-6.24854,6.24805-16.3999,6.24609-22.63672,0.00977
	c-6.23828-6.23877-6.23828-16.38916-0.00049-22.62744L98.5459,70.82666l5.65723,5.65723l-37.85986,37.85938
	c-3.11914,3.11914-3.11914,8.19434,0,11.31396c3.11816,3.11865,8.19385,3.11816,11.31396-0.00049l58.79346-59.18701
	c6.05273-6.05322,6.05273-15.88623,0.00928-21.92969c-6.04297-6.04395-15.87695-6.04395-21.91992,0l-67.79541,68.18848
	C42.39258,117.08057,40,122.85645,40,129s2.39258,11.91943,6.73633,16.26318C51.08057,149.60742,56.85645,152,63,152
	s11.91943-2.39258,16.26318-6.73633l46.94092-46.94141l5.65723,5.65723l-46.94092,46.94092C79.06543,156.77539,71.28027,160,63,160z
	"/>
<g>
</g>
<g>
</g>
<g>
</g>
<g>
</g>
<g>
</g>
<g>
</g>
<g>
</g>
<g>
</g>
<g>
</g>
<g>
</g>
<g>
</g>
<g>
</g>
<g>
</g>
<g>
</g>
<g>
</g>
</svg>
