<?xml version="1.0" encoding="utf-8"?>
<!-- Generator: Adobe Illustrator 24.0.1, SVG Export Plug-In . SVG Version: 6.00 Build 0)  -->
<svg version="1.1" id="Icon_x5F_contour" xmlns="http://www.w3.org/2000/svg" xmlns:xlink="http://www.w3.org/1999/xlink" x="0px"
	 y="0px" viewBox="0 0 192 192" style="enable-background:new 0 0 192 192;" xml:space="preserve">
<path d="M164,32v28h-28v-8h14.67657C136.98926,33.9021,117.75397,24,96,24c-39.70117,0-72,32.29883-72,72h-8
	c0-44.1123,35.8877-80,80-80c23.79443,0,44.84973,10.52179,60,29.79657V32H164z M168,96c0,39.70117-32.29883,72-72,72
	c-21.75397,0-40.98926-9.9021-54.67657-28H56v-8H28v28h8v-13.79657C51.15027,165.47821,72.20557,176,96,176
	c44.1123,0,80-35.8877,80-80H168z M117.99951,95.99951c0,12.13086-9.86914,22-22,22s-22-9.86914-22-22s9.86914-22,22-22
	S117.99951,83.86865,117.99951,95.99951z M109.99951,95.99951c0-7.71973-6.28027-14-14-14s-14,6.28027-14,14s6.28027,14,14,14
	S109.99951,103.71924,109.99951,95.99951z M147.34863,87.79346l-0.41113-2.5874l-11.35156-2.94238
	c-0.53516-1.54004-1.16211-3.05029-1.87549-4.52051L134.73114,76h-9.27057l-0.92297,1.57617l1.10938,1.99512
	c1.25244,2.25244,2.24463,4.64404,2.94873,7.10889l0.62842,2.19922l10.55518,2.73584c0.146,1.46289,0.21973,2.92969,0.21973,4.38428
	c0,1.45557-0.07422,2.9248-0.2207,4.39111l-10.56201,2.7627l-0.62793,2.19141c-0.70312,2.45459-1.69287,4.83789-2.94092,7.08301
	l-1.10889,1.99463l5.51562,9.42236c-1.85889,2.27197-3.93652,4.3501-6.20947,6.20947l-9.42188-5.51562l-1.99463,1.10889
	c-2.25342,1.25244-4.64502,2.24414-7.1084,2.94775l-2.19971,0.62842l-2.73584,10.55518
	c-2.93115,0.29248-5.8457,0.29199-8.77588-0.00049l-2.76514-10.5625l-2.18994-0.62793
	c-2.45557-0.70361-4.8374-1.69287-7.07959-2.93896l-1.99414-1.1084L72,127.80542v9.2688l5.74609-3.3623
	c1.46094,0.70898,2.96191,1.33203,4.49268,1.86523l2.97412,11.36182l2.58154,0.40967
	c2.72119,0.43164,5.48193,0.65039,8.20508,0.65039c2.72363,0,5.48438-0.21875,8.20557-0.65039l2.58789-0.41064l2.94287-11.35254
	c1.53906-0.53467,3.0498-1.16162,4.51953-1.875l10.12793,5.9292l2.11523-1.53418c4.46436-3.23926,8.36963-7.14453,11.60693-11.60742
	l1.53418-2.11475l-5.92871-10.12793c0.70947-1.4624,1.3335-2.96533,1.8667-4.49707l11.36133-2.97119l0.40967-2.58203
	c0.43164-2.72119,0.65039-5.48193,0.65039-8.20557C147.99902,93.27295,147.78027,90.51221,147.34863,87.79346z M67.46143,114.42383
	l-1.10889-1.99512c-1.25244-2.25195-2.24414-4.64355-2.94873-7.10889l-0.62842-2.19922l-10.55518-2.73584
	C52.07373,98.91992,52,97.45312,52,95.99951c0-1.45557,0.07422-2.92432,0.2207-4.39111l10.56201-2.7627l0.62793-2.19092
	c0.70361-2.45557,1.69287-4.83838,2.94092-7.08252l1.10889-1.99463l-5.51562-9.42334
	c1.85938-2.27246,3.93701-4.3501,6.20947-6.20947l9.42236,5.51562l1.99463-1.10889c2.25342-1.25244,4.64502-2.24414,7.1084-2.94775
	l2.19971-0.62842l2.73584-10.55518c2.93018-0.29346,5.8457-0.29199,8.77588,0.00049l2.76514,10.56348l2.19092,0.62744
	c2.45264,0.70264,4.83447,1.69141,7.07861,2.93896l1.99414,1.1084L120,64.19397v-9.26892l-5.74658,3.36255
	c-1.46143-0.70947-2.96289-1.33252-4.49316-1.86572l-2.97363-11.36182l-2.58154-0.40967
	c-5.44189-0.86328-10.96777-0.86328-16.41064,0l-2.58789,0.41064l-2.94287,11.35254c-1.53906,0.53467-3.0498,1.16162-4.52002,1.875
	l-10.12793-5.9292l-2.11523,1.53418c-4.46338,3.23828-8.36865,7.14355-11.60693,11.60693l-1.53418,2.11523l5.92871,10.12842
	c-0.70947,1.4624-1.3335,2.96484-1.8667,4.49658L45.06006,85.2124l-0.40967,2.58203C44.21875,90.51562,44,93.27637,44,95.99951
	c0,2.72363,0.21875,5.48438,0.65039,8.20557l0.41064,2.58789l11.35254,2.94336c0.53564,1.54004,1.16211,3.05029,1.87549,4.52051
	L54.92651,120h9.27014L67.46143,114.42383z"/>
<g>
</g>
<g>
</g>
<g>
</g>
<g>
</g>
<g>
</g>
<g>
</g>
<g>
</g>
<g>
</g>
<g>
</g>
<g>
</g>
<g>
</g>
<g>
</g>
<g>
</g>
<g>
</g>
<g>
</g>
</svg>
